<svg xmlns="http://www.w3.org/2000/svg" data-name="Layer 1" width="850.53" height="740.5" viewBox="0 0 850.53 740.5" xmlns:xlink="http://www.w3.org/1999/xlink">
  <path d="M941.06,849.75H698.14a7.75,7.75,0,0,1-7.74-7.74V434.76a7.75,7.75,0,0,1,7.74-7.74H941.06a7.75,7.75,0,0,1,7.74,7.74V842A7.75,7.75,0,0,1,941.06,849.75ZM698.14,429a5.75,5.75,0,0,0-5.74,5.74V842a5.75,5.75,0,0,0,5.74,5.74H941.06a5.75,5.75,0,0,0,5.74-5.74V434.76a5.75,5.75,0,0,0-5.74-5.74Z" transform="translate(-174.73 -79.75)" fill="#3f3d56"/>
  <rect x="528.8" y="379.87" width="228.38" height="2" fill="#3f3d56"/>
  <rect x="528.8" y="400.87" width="228.38" height="2" fill="#3f3d56"/>
  <rect x="528.8" y="421.87" width="228.38" height="2" fill="#3f3d56"/>
  <rect x="528.8" y="442.87" width="228.38" height="2" fill="#3f3d56"/>
  <rect x="528.8" y="463.87" width="228.38" height="2" fill="#3f3d56"/>
  <rect x="528.8" y="484.87" width="228.38" height="2" fill="#3f3d56"/>
  <path d="M820.73,386.75h-122a17,17,0,0,1,0-34h122a17,17,0,0,1,0,34Zm-122-32a15,15,0,0,0,0,30h122a15,15,0,0,0,0-30Z" transform="translate(-174.73 -79.75)" fill="#3f3d56"/>
  <path d="M675.73,293.75h-122a17,17,0,0,1,0-34h122a17,17,0,0,1,0,34Zm-122-32a15,15,0,0,0,0,30h122a15,15,0,0,0,0-30Z" transform="translate(-174.73 -79.75)" fill="#3f3d56"/>
  <path d="M533.73,386.75h-122a17,17,0,0,1,0-34h122a17,17,0,0,1,0,34Zm-122-32a15,15,0,0,0,0,30h122a15,15,0,0,0,0-30Z" transform="translate(-174.73 -79.75)" fill="#3f3d56"/>
  <path d="M675.73,479.75h-122a17,17,0,0,1,0-34h122a17,17,0,0,1,0,34Zm-122-32a15,15,0,0,0,0,30h122a15,15,0,0,0,0-30Z" transform="translate(-174.73 -79.75)" fill="#3f3d56"/>
  <path d="M533.73,479.75h-122a17,17,0,0,1,0-34h122a17,17,0,0,1,0,34Zm-122-32a15,15,0,0,0,0,30h122a15,15,0,0,0,0-30Z" transform="translate(-174.73 -79.75)" fill="#3f3d56"/>
  <path d="M820.73,479.75h-122a17,17,0,0,1,0-34h122a17,17,0,0,1,0,34Zm-122-32a15,15,0,0,0,0,30h122a15,15,0,0,0,0-30Z" transform="translate(-174.73 -79.75)" fill="#3f3d56"/>
  <rect x="528.8" y="505.87" width="228.38" height="2" fill="#3f3d56"/>
  <rect x="528.8" y="526.87" width="228.38" height="2" fill="#3f3d56"/>
  <rect x="528.8" y="547.87" width="228.38" height="2" fill="#3f3d56"/>
  <path d="M820.73,572.75h-122a17,17,0,0,1,0-34h122a17,17,0,0,1,0,34Zm-122-32a15,15,0,0,0,0,30h122a15,15,0,0,0,0-30Z" transform="translate(-174.73 -79.75)" fill="#3f3d56"/>
  <path d="M675.73,572.75h-122a17,17,0,0,1,0-34h122a17,17,0,0,1,0,34Zm-122-32a15,15,0,0,0,0,30h122a15,15,0,0,0,0-30Z" transform="translate(-174.73 -79.75)" fill="#3f3d56"/>
  <path d="M533.73,572.75h-122a17,17,0,0,1,0-34h122a17,17,0,0,1,0,34Zm-122-32a15,15,0,0,0,0,30h122a15,15,0,0,0,0-30Z" transform="translate(-174.73 -79.75)" fill="#3f3d56"/>
  <rect x="528.8" y="568.87" width="228.38" height="2" fill="#3f3d56"/>
  <rect x="528.8" y="589.87" width="228.38" height="2" fill="#3f3d56"/>
  <rect x="528.8" y="610.87" width="228.38" height="2" fill="#3f3d56"/>
  <path d="M820.73,665.75h-122a17,17,0,0,1,0-34h122a17,17,0,0,1,0,34Zm-122-32a15,15,0,0,0,0,30h122a15,15,0,0,0,0-30Z" transform="translate(-174.73 -79.75)" fill="#3f3d56"/>
  <path d="M675.73,665.75h-122a17,17,0,0,1,0-34h122a17,17,0,0,1,0,34Zm-122-32a15,15,0,0,0,0,30h122a15,15,0,0,0,0-30Z" transform="translate(-174.73 -79.75)" fill="#3f3d56"/>
  <circle cx="425.77" cy="355.12" r="12" fill="#6c63ff"/>
  <circle cx="425.77" cy="448.12" r="12" fill="#6c63ff"/>
  <circle cx="425.77" cy="541.12" r="12" fill="#6c63ff"/>
  <circle cx="425.77" cy="634.12" r="12" fill="#6c63ff"/>
  <circle cx="283.77" cy="355.12" r="12" fill="#6c63ff"/>
  <circle cx="283.77" cy="448.12" r="12" fill="#6c63ff"/>
  <circle cx="283.77" cy="541.12" r="12" fill="#6c63ff"/>
  <circle cx="283.77" cy="634.12" r="12" fill="#6c63ff"/>
  <circle cx="425.77" cy="169.12" r="12" fill="#6c63ff"/>
  <circle cx="425.77" cy="262.12" r="12" fill="#6c63ff"/>
  <circle cx="283.77" cy="169.12" r="12" fill="#6c63ff"/>
  <circle cx="283.77" cy="262.12" r="12" fill="#6c63ff"/>
  <path d="M1010.27,820.25h-674a1,1,0,0,1,0-2h674a1,1,0,0,1,0,2Z" transform="translate(-174.73 -79.75)" fill="#cbcbcb"/>
  <path d="M553.5,577.14a49.66,49.66,0,0,1-3.7-6l28.1-3.5L547,571.85a50.15,50.15,0,0,1,.8-40.35l40.1,21.1-37-30.14a50.09,50.09,0,1,1,81.2,58.7,50.09,50.09,0,0,1,5.7,9.1l-37.8,18.2,40.3-12.3a50.09,50.09,0,0,1-9.4,47.1,50.09,50.09,0,1,1-78.8,0,50.09,50.09,0,0,1,1.2-46.2Z" transform="translate(-174.73 -79.75)" fill="#6c63ff"/>
  <path d="M647.9,598.14a49.84,49.84,0,0,1-10.6,31,50.09,50.09,0,1,1-78.8,0C551.76,619.94,648.9,591.74,647.9,598.14Z" transform="translate(-174.73 -79.75)" opacity="0.1"/>
</svg> 